ISO-10303-21;
HEADER;
/* Generated by software containing ST-Developer
 * from STEP Tools, Inc. (www.steptools.com) 
 */

FILE_DESCRIPTION(
/* description */ (''),
/* implementation_level */ '2;1');

FILE_NAME(
/* name */ 'ConnectingRod.step',
/* time_stamp */ '2026-09-17T23:32:23+05:30',
/* author */ (''),
/* organization */ (''),
/* preprocessor_version */ 'ST-DEVELOPER v20.2',
/* originating_system */ 'Autodesk Translation Framework v15.15.0.0',
/* authorisation */ '');

FILE_SCHEMA (('AUTOMOTIVE_DESIGN { 1 0 10303 214 3 1 1 }'));
ENDSEC;

DATA;
#10=MECHANICAL_DESIGN_GEOMETRIC_PRESENTATION_REPRESENTATION('',(#13),#1137);
#11=SHAPE_REPRESENTATION_RELATIONSHIP('SRR','None',#1144,#12);
#12=ADVANCED_BREP_SHAPE_REPRESENTATION('',(#14),#1136);
#13=STYLED_ITEM('',(#1153),#14);
#14=MANIFOLD_SOLID_BREP('Body1',#645);
#15=FACE_BOUND('',#77,.T.);
#16=FACE_BOUND('',#93,.T.);
#17=FACE_BOUND('',#97,.T.);
#18=FACE_BOUND('',#99,.T.);
#19=FACE_BOUND('',#102,.T.);
#20=FACE_BOUND('',#111,.T.);
#21=FACE_BOUND('',#114,.T.);
#22=PLANE('',#662);
#23=PLANE('',#682);
#24=PLANE('',#686);
#25=PLANE('',#698);
#26=PLANE('',#710);
#27=PLANE('',#714);
#28=PLANE('',#715);
#29=PLANE('',#716);
#30=PLANE('',#720);
#31=PLANE('',#721);
#32=PLANE('',#726);
#33=PLANE('',#727);
#34=PLANE('',#728);
#35=PLANE('',#732);
#36=PLANE('',#733);
#37=PLANE('',#737);
#38=FACE_OUTER_BOUND('',#73,.T.);
#39=FACE_OUTER_BOUND('',#74,.T.);
#40=FACE_OUTER_BOUND('',#75,.T.);
#41=FACE_OUTER_BOUND('',#76,.T.);
#42=FACE_OUTER_BOUND('',#78,.T.);
#43=FACE_OUTER_BOUND('',#79,.T.);
#44=FACE_OUTER_BOUND('',#80,.T.);
#45=FACE_OUTER_BOUND('',#81,.T.);
#46=FACE_OUTER_BOUND('',#82,.T.);
#47=FACE_OUTER_BOUND('',#83,.T.);
#48=FACE_OUTER_BOUND('',#84,.T.);
#49=FACE_OUTER_BOUND('',#85,.T.);
#50=FACE_OUTER_BOUND('',#86,.T.);
#51=FACE_OUTER_BOUND('',#87,.T.);
#52=FACE_OUTER_BOUND('',#88,.T.);
#53=FACE_OUTER_BOUND('',#89,.T.);
#54=FACE_OUTER_BOUND('',#90,.T.);
#55=FACE_OUTER_BOUND('',#91,.T.);
#56=FACE_OUTER_BOUND('',#92,.T.);
#57=FACE_OUTER_BOUND('',#94,.T.);
#58=FACE_OUTER_BOUND('',#95,.T.);
#59=FACE_OUTER_BOUND('',#96,.T.);
#60=FACE_OUTER_BOUND('',#98,.T.);
#61=FACE_OUTER_BOUND('',#100,.T.);
#62=FACE_OUTER_BOUND('',#101,.T.);
#63=FACE_OUTER_BOUND('',#103,.T.);
#64=FACE_OUTER_BOUND('',#104,.T.);
#65=FACE_OUTER_BOUND('',#105,.T.);
#66=FACE_OUTER_BOUND('',#106,.T.);
#67=FACE_OUTER_BOUND('',#107,.T.);
#68=FACE_OUTER_BOUND('',#108,.T.);
#69=FACE_OUTER_BOUND('',#109,.T.);
#70=FACE_OUTER_BOUND('',#110,.T.);
#71=FACE_OUTER_BOUND('',#112,.T.);
#72=FACE_OUTER_BOUND('',#113,.T.);
#73=EDGE_LOOP('',(#407,#408,#409,#410));
#74=EDGE_LOOP('',(#411,#412,#413,#414,#415,#416,#417,#418,#419,#420,#421,
#422));
#75=EDGE_LOOP('',(#423,#424,#425,#426));
#76=EDGE_LOOP('',(#427,#428,#429,#430));
#77=EDGE_LOOP('',(#431,#432,#433,#434));
#78=EDGE_LOOP('',(#435,#436,#437,#438));
#79=EDGE_LOOP('',(#439,#440,#441,#442));
#80=EDGE_LOOP('',(#443,#444,#445,#446));
#81=EDGE_LOOP('',(#447,#448,#449,#450));
#82=EDGE_LOOP('',(#451,#452,#453,#454,#455,#456,#457,#458,#459,#460,#461,
#462));
#83=EDGE_LOOP('',(#463,#464,#465,#466));
#84=EDGE_LOOP('',(#467,#468,#469,#470));
#85=EDGE_LOOP('',(#471,#472,#473,#474));
#86=EDGE_LOOP('',(#475,#476,#477,#478));
#87=EDGE_LOOP('',(#479,#480,#481,#482));
#88=EDGE_LOOP('',(#483,#484,#485,#486));
#89=EDGE_LOOP('',(#487,#488,#489,#490,#491,#492,#493,#494));
#90=EDGE_LOOP('',(#495,#496,#497,#498));
#91=EDGE_LOOP('',(#499,#500,#501,#502));
#92=EDGE_LOOP('',(#503,#504,#505,#506,#507,#508,#509,#510));
#93=EDGE_LOOP('',(#511));
#94=EDGE_LOOP('',(#512,#513,#514,#515));
#95=EDGE_LOOP('',(#516,#517,#518,#519,#520));
#96=EDGE_LOOP('',(#521,#522,#523,#524,#525,#526));
#97=EDGE_LOOP('',(#527));
#98=EDGE_LOOP('',(#528,#529,#530,#531,#532,#533,#534,#535));
#99=EDGE_LOOP('',(#536));
#100=EDGE_LOOP('',(#537,#538,#539,#540));
#101=EDGE_LOOP('',(#541,#542,#543,#544,#545,#546));
#102=EDGE_LOOP('',(#547));
#103=EDGE_LOOP('',(#548,#549,#550,#551,#552));
#104=EDGE_LOOP('',(#553,#554,#555,#556,#557,#558,#559,#560));
#105=EDGE_LOOP('',(#561,#562,#563,#564,#565));
#106=EDGE_LOOP('',(#566,#567,#568,#569,#570));
#107=EDGE_LOOP('',(#571,#572,#573,#574));
#108=EDGE_LOOP('',(#575,#576,#577,#578));
#109=EDGE_LOOP('',(#579,#580,#581,#582));
#110=EDGE_LOOP('',(#583));
#111=EDGE_LOOP('',(#584));
#112=EDGE_LOOP('',(#585,#586,#587,#588));
#113=EDGE_LOOP('',(#589));
#114=EDGE_LOOP('',(#590));
#115=CIRCLE('',#660,29.1462846137909);
#116=CIRCLE('',#661,29.1462846137909);
#117=CIRCLE('',#663,22.5000000000004);
#118=CIRCLE('',#664,98.7281890018507);
#119=CIRCLE('',#665,22.5);
#120=CIRCLE('',#666,98.7281890018508);
#121=CIRCLE('',#667,22.5000000000004);
#122=CIRCLE('',#668,29.1462846137909);
#123=CIRCLE('',#669,29.1462846137909);
#124=CIRCLE('',#670,36.);
#125=CIRCLE('',#671,29.1462846137909);
#126=CIRCLE('',#673,29.1462846137909);
#127=CIRCLE('',#675,22.5);
#128=CIRCLE('',#676,22.5);
#129=CIRCLE('',#677,22.5);
#130=CIRCLE('',#679,98.7281890018507);
#131=CIRCLE('',#681,22.5000000000004);
#132=CIRCLE('',#684,29.1462846137909);
#133=CIRCLE('',#685,29.1462846137909);
#134=CIRCLE('',#687,29.1462846137909);
#135=CIRCLE('',#688,29.1462846137909);
#136=CIRCLE('',#689,36.);
#137=CIRCLE('',#690,29.1462846137909);
#138=CIRCLE('',#691,22.5000000000004);
#139=CIRCLE('',#692,98.7281890018508);
#140=CIRCLE('',#694,29.1462846137909);
#141=CIRCLE('',#701,36.);
#142=CIRCLE('',#702,36.);
#143=CIRCLE('',#703,36.);
#144=CIRCLE('',#705,4.5);
#145=CIRCLE('',#706,4.5);
#146=CIRCLE('',#708,4.5);
#147=CIRCLE('',#709,4.5);
#148=CIRCLE('',#711,9.);
#149=CIRCLE('',#713,9.);
#150=CIRCLE('',#717,9.);
#151=CIRCLE('',#719,9.);
#152=CIRCLE('',#722,36.);
#153=CIRCLE('',#724,36.);
#154=CIRCLE('',#725,36.);
#155=CIRCLE('',#729,27.);
#156=CIRCLE('',#731,27.);
#157=CIRCLE('',#734,16.9);
#158=CIRCLE('',#736,16.9);
#159=LINE('',#950,#207);
#160=LINE('',#954,#208);
#161=LINE('',#959,#209);
#162=LINE('',#971,#210);
#163=LINE('',#980,#211);
#164=LINE('',#983,#212);
#165=LINE('',#988,#213);
#166=LINE('',#991,#214);
#167=LINE('',#994,#215);
#168=LINE('',#997,#216);
#169=LINE('',#1001,#217);
#170=LINE('',#1005,#218);
#171=LINE('',#1006,#219);
#172=LINE('',#1010,#220);
#173=LINE('',#1014,#221);
#174=LINE('',#1025,#222);
#175=LINE('',#1031,#223);
#176=LINE('',#1034,#224);
#177=LINE('',#1036,#225);
#178=LINE('',#1038,#226);
#179=LINE('',#1040,#227);
#180=LINE('',#1042,#228);
#181=LINE('',#1044,#229);
#182=LINE('',#1050,#230);
#183=LINE('',#1054,#231);
#184=LINE('',#1059,#232);
#185=LINE('',#1065,#233);
#186=LINE('',#1071,#234);
#187=LINE('',#1073,#235);
#188=LINE('',#1075,#236);
#189=LINE('',#1077,#237);
#190=LINE('',#1079,#238);
#191=LINE('',#1080,#239);
#192=LINE('',#1085,#240);
#193=LINE('',#1086,#241);
#194=LINE('',#1088,#242);
#195=LINE('',#1090,#243);
#196=LINE('',#1096,#244);
#197=LINE('',#1098,#245);
#198=LINE('',#1100,#246);
#199=LINE('',#1102,#247);
#200=LINE('',#1103,#248);
#201=LINE('',#1104,#249);
#202=LINE('',#1109,#250);
#203=LINE('',#1110,#251);
#204=LINE('',#1112,#252);
#205=LINE('',#1113,#253);
#206=LINE('',#1132,#254);
#207=VECTOR('',#742,10.);
#208=VECTOR('',#745,10.);
#209=VECTOR('',#750,10.);
#210=VECTOR('',#761,10.);
#211=VECTOR('',#772,10.);
#212=VECTOR('',#775,10.);
#213=VECTOR('',#780,22.5);
#214=VECTOR('',#783,10.);
#215=VECTOR('',#786,10.);
#216=VECTOR('',#789,10.);
#217=VECTOR('',#794,10.);
#218=VECTOR('',#799,10.);
#219=VECTOR('',#800,10.);
#220=VECTOR('',#803,10.);
#221=VECTOR('',#806,10.);
#222=VECTOR('',#819,10.);
#223=VECTOR('',#826,10.);
#224=VECTOR('',#829,10.);
#225=VECTOR('',#832,10.);
#226=VECTOR('',#835,10.);
#227=VECTOR('',#838,10.);
#228=VECTOR('',#841,10.);
#229=VECTOR('',#844,10.);
#230=VECTOR('',#849,10.);
#231=VECTOR('',#854,10.);
#232=VECTOR('',#859,4.5);
#233=VECTOR('',#866,4.5);
#234=VECTOR('',#873,10.);
#235=VECTOR('',#874,10.);
#236=VECTOR('',#875,10.);
#237=VECTOR('',#876,10.);
#238=VECTOR('',#877,10.);
#239=VECTOR('',#878,10.);
#240=VECTOR('',#883,10.);
#241=VECTOR('',#884,10.);
#242=VECTOR('',#887,10.);
#243=VECTOR('',#890,10.);
#244=VECTOR('',#895,10.);
#245=VECTOR('',#896,10.);
#246=VECTOR('',#897,10.);
#247=VECTOR('',#898,10.);
#248=VECTOR('',#899,10.);
#249=VECTOR('',#900,10.);
#250=VECTOR('',#905,10.);
#251=VECTOR('',#906,10.);
#252=VECTOR('',#909,10.);
#253=VECTOR('',#910,10.);
#254=VECTOR('',#943,16.9);
#255=VERTEX_POINT('',#948);
#256=VERTEX_POINT('',#949);
#257=VERTEX_POINT('',#951);
#258=VERTEX_POINT('',#953);
#259=VERTEX_POINT('',#957);
#260=VERTEX_POINT('',#958);
#261=VERTEX_POINT('',#960);
#262=VERTEX_POINT('',#962);
#263=VERTEX_POINT('',#964);
#264=VERTEX_POINT('',#966);
#265=VERTEX_POINT('',#968);
#266=VERTEX_POINT('',#970);
#267=VERTEX_POINT('',#972);
#268=VERTEX_POINT('',#974);
#269=VERTEX_POINT('',#979);
#270=VERTEX_POINT('',#981);
#271=VERTEX_POINT('',#985);
#272=VERTEX_POINT('',#987);
#273=VERTEX_POINT('',#990);
#274=VERTEX_POINT('',#992);
#275=VERTEX_POINT('',#996);
#276=VERTEX_POINT('',#1000);
#277=VERTEX_POINT('',#1004);
#278=VERTEX_POINT('',#1008);
#279=VERTEX_POINT('',#1009);
#280=VERTEX_POINT('',#1011);
#281=VERTEX_POINT('',#1013);
#282=VERTEX_POINT('',#1017);
#283=VERTEX_POINT('',#1019);
#284=VERTEX_POINT('',#1022);
#285=VERTEX_POINT('',#1024);
#286=VERTEX_POINT('',#1026);
#287=VERTEX_POINT('',#1030);
#288=VERTEX_POINT('',#1032);
#289=VERTEX_POINT('',#1046);
#290=VERTEX_POINT('',#1047);
#291=VERTEX_POINT('',#1049);
#292=VERTEX_POINT('',#1052);
#293=VERTEX_POINT('',#1056);
#294=VERTEX_POINT('',#1058);
#295=VERTEX_POINT('',#1062);
#296=VERTEX_POINT('',#1064);
#297=VERTEX_POINT('',#1068);
#298=VERTEX_POINT('',#1069);
#299=VERTEX_POINT('',#1072);
#300=VERTEX_POINT('',#1074);
#301=VERTEX_POINT('',#1076);
#302=VERTEX_POINT('',#1078);
#303=VERTEX_POINT('',#1082);
#304=VERTEX_POINT('',#1083);
#305=VERTEX_POINT('',#1092);
#306=VERTEX_POINT('',#1093);
#307=VERTEX_POINT('',#1095);
#308=VERTEX_POINT('',#1097);
#309=VERTEX_POINT('',#1099);
#310=VERTEX_POINT('',#1101);
#311=VERTEX_POINT('',#1106);
#312=VERTEX_POINT('',#1107);
#313=VERTEX_POINT('',#1127);
#314=VERTEX_POINT('',#1130);
#315=EDGE_CURVE('',#255,#256,#159,.T.);
#316=EDGE_CURVE('',#256,#257,#115,.T.);
#317=EDGE_CURVE('',#257,#258,#160,.T.);
#318=EDGE_CURVE('',#258,#255,#116,.T.);
#319=EDGE_CURVE('',#259,#260,#161,.T.);
#320=EDGE_CURVE('',#261,#259,#117,.T.);
#321=EDGE_CURVE('',#262,#261,#118,.T.);
#322=EDGE_CURVE('',#263,#262,#119,.T.);
#323=EDGE_CURVE('',#264,#263,#120,.T.);
#324=EDGE_CURVE('',#265,#264,#121,.T.);
#325=EDGE_CURVE('',#266,#265,#162,.T.);
#326=EDGE_CURVE('',#267,#266,#122,.T.);
#327=EDGE_CURVE('',#268,#267,#123,.T.);
#328=EDGE_CURVE('',#257,#268,#124,.T.);
#329=EDGE_CURVE('',#260,#256,#125,.T.);
#330=EDGE_CURVE('',#267,#269,#163,.T.);
#331=EDGE_CURVE('',#269,#270,#126,.T.);
#332=EDGE_CURVE('',#268,#270,#164,.T.);
#333=EDGE_CURVE('',#271,#271,#127,.T.);
#334=EDGE_CURVE('',#271,#272,#165,.T.);
#335=EDGE_CURVE('',#272,#272,#128,.T.);
#336=EDGE_CURVE('',#262,#273,#166,.T.);
#337=EDGE_CURVE('',#273,#274,#129,.T.);
#338=EDGE_CURVE('',#274,#263,#167,.T.);
#339=EDGE_CURVE('',#261,#275,#168,.T.);
#340=EDGE_CURVE('',#275,#273,#130,.T.);
#341=EDGE_CURVE('',#276,#259,#169,.T.);
#342=EDGE_CURVE('',#276,#275,#131,.T.);
#343=EDGE_CURVE('',#260,#277,#170,.T.);
#344=EDGE_CURVE('',#277,#276,#171,.T.);
#345=EDGE_CURVE('',#278,#279,#172,.T.);
#346=EDGE_CURVE('',#279,#280,#132,.T.);
#347=EDGE_CURVE('',#280,#281,#173,.T.);
#348=EDGE_CURVE('',#281,#278,#133,.T.);
#349=EDGE_CURVE('',#282,#277,#134,.T.);
#350=EDGE_CURVE('',#283,#282,#135,.T.);
#351=EDGE_CURVE('',#280,#283,#136,.T.);
#352=EDGE_CURVE('',#284,#279,#137,.T.);
#353=EDGE_CURVE('',#285,#284,#174,.T.);
#354=EDGE_CURVE('',#286,#285,#138,.T.);
#355=EDGE_CURVE('',#274,#286,#139,.T.);
#356=EDGE_CURVE('',#282,#287,#175,.T.);
#357=EDGE_CURVE('',#287,#288,#140,.T.);
#358=EDGE_CURVE('',#283,#288,#176,.T.);
#359=EDGE_CURVE('',#256,#282,#177,.T.);
#360=EDGE_CURVE('',#264,#286,#178,.T.);
#361=EDGE_CURVE('',#265,#285,#179,.T.);
#362=EDGE_CURVE('',#266,#284,#180,.T.);
#363=EDGE_CURVE('',#279,#267,#181,.T.);
#364=EDGE_CURVE('',#289,#290,#141,.T.);
#365=EDGE_CURVE('',#289,#291,#182,.T.);
#366=EDGE_CURVE('',#291,#281,#142,.T.);
#367=EDGE_CURVE('',#288,#292,#143,.T.);
#368=EDGE_CURVE('',#292,#290,#183,.T.);
#369=EDGE_CURVE('',#293,#293,#144,.T.);
#370=EDGE_CURVE('',#293,#294,#184,.T.);
#371=EDGE_CURVE('',#294,#294,#145,.T.);
#372=EDGE_CURVE('',#295,#295,#146,.T.);
#373=EDGE_CURVE('',#295,#296,#185,.T.);
#374=EDGE_CURVE('',#296,#296,#147,.T.);
#375=EDGE_CURVE('',#297,#298,#148,.T.);
#376=EDGE_CURVE('',#291,#297,#186,.T.);
#377=EDGE_CURVE('',#299,#289,#187,.T.);
#378=EDGE_CURVE('',#300,#299,#188,.T.);
#379=EDGE_CURVE('',#301,#300,#189,.T.);
#380=EDGE_CURVE('',#302,#301,#190,.T.);
#381=EDGE_CURVE('',#298,#302,#191,.T.);
#382=EDGE_CURVE('',#303,#304,#149,.T.);
#383=EDGE_CURVE('',#304,#297,#192,.T.);
#384=EDGE_CURVE('',#298,#303,#193,.T.);
#385=EDGE_CURVE('',#304,#278,#194,.T.);
#386=EDGE_CURVE('',#269,#303,#195,.T.);
#387=EDGE_CURVE('',#305,#306,#150,.T.);
#388=EDGE_CURVE('',#307,#305,#196,.T.);
#389=EDGE_CURVE('',#308,#307,#197,.T.);
#390=EDGE_CURVE('',#309,#308,#198,.T.);
#391=EDGE_CURVE('',#309,#310,#199,.T.);
#392=EDGE_CURVE('',#290,#310,#200,.T.);
#393=EDGE_CURVE('',#306,#292,#201,.T.);
#394=EDGE_CURVE('',#311,#312,#151,.T.);
#395=EDGE_CURVE('',#312,#305,#202,.T.);
#396=EDGE_CURVE('',#306,#311,#203,.T.);
#397=EDGE_CURVE('',#287,#311,#204,.T.);
#398=EDGE_CURVE('',#312,#255,#205,.T.);
#399=EDGE_CURVE('',#270,#302,#152,.T.);
#400=EDGE_CURVE('',#308,#301,#153,.T.);
#401=EDGE_CURVE('',#307,#258,#154,.T.);
#402=EDGE_CURVE('',#300,#309,#155,.T.);
#403=EDGE_CURVE('',#310,#299,#156,.T.);
#404=EDGE_CURVE('',#313,#313,#157,.T.);
#405=EDGE_CURVE('',#314,#314,#158,.T.);
#406=EDGE_CURVE('',#314,#313,#206,.T.);
#407=ORIENTED_EDGE('',*,*,#315,.T.);
#408=ORIENTED_EDGE('',*,*,#316,.T.);
#409=ORIENTED_EDGE('',*,*,#317,.T.);
#410=ORIENTED_EDGE('',*,*,#318,.T.);
#411=ORIENTED_EDGE('',*,*,#319,.F.);
#412=ORIENTED_EDGE('',*,*,#320,.F.);
#413=ORIENTED_EDGE('',*,*,#321,.F.);
#414=ORIENTED_EDGE('',*,*,#322,.F.);
#415=ORIENTED_EDGE('',*,*,#323,.F.);
#416=ORIENTED_EDGE('',*,*,#324,.F.);
#417=ORIENTED_EDGE('',*,*,#325,.F.);
#418=ORIENTED_EDGE('',*,*,#326,.F.);
#419=ORIENTED_EDGE('',*,*,#327,.F.);
#420=ORIENTED_EDGE('',*,*,#328,.F.);
#421=ORIENTED_EDGE('',*,*,#316,.F.);
#422=ORIENTED_EDGE('',*,*,#329,.F.);
#423=ORIENTED_EDGE('',*,*,#330,.T.);
#424=ORIENTED_EDGE('',*,*,#331,.T.);
#425=ORIENTED_EDGE('',*,*,#332,.F.);
#426=ORIENTED_EDGE('',*,*,#327,.T.);
#427=ORIENTED_EDGE('',*,*,#333,.F.);
#428=ORIENTED_EDGE('',*,*,#334,.T.);
#429=ORIENTED_EDGE('',*,*,#335,.F.);
#430=ORIENTED_EDGE('',*,*,#334,.F.);
#431=ORIENTED_EDGE('',*,*,#336,.T.);
#432=ORIENTED_EDGE('',*,*,#337,.T.);
#433=ORIENTED_EDGE('',*,*,#338,.T.);
#434=ORIENTED_EDGE('',*,*,#322,.T.);
#435=ORIENTED_EDGE('',*,*,#321,.T.);
#436=ORIENTED_EDGE('',*,*,#339,.T.);
#437=ORIENTED_EDGE('',*,*,#340,.T.);
#438=ORIENTED_EDGE('',*,*,#336,.F.);
#439=ORIENTED_EDGE('',*,*,#320,.T.);
#440=ORIENTED_EDGE('',*,*,#341,.F.);
#441=ORIENTED_EDGE('',*,*,#342,.T.);
#442=ORIENTED_EDGE('',*,*,#339,.F.);
#443=ORIENTED_EDGE('',*,*,#319,.T.);
#444=ORIENTED_EDGE('',*,*,#343,.T.);
#445=ORIENTED_EDGE('',*,*,#344,.T.);
#446=ORIENTED_EDGE('',*,*,#341,.T.);
#447=ORIENTED_EDGE('',*,*,#345,.T.);
#448=ORIENTED_EDGE('',*,*,#346,.T.);
#449=ORIENTED_EDGE('',*,*,#347,.T.);
#450=ORIENTED_EDGE('',*,*,#348,.T.);
#451=ORIENTED_EDGE('',*,*,#344,.F.);
#452=ORIENTED_EDGE('',*,*,#349,.F.);
#453=ORIENTED_EDGE('',*,*,#350,.F.);
#454=ORIENTED_EDGE('',*,*,#351,.F.);
#455=ORIENTED_EDGE('',*,*,#346,.F.);
#456=ORIENTED_EDGE('',*,*,#352,.F.);
#457=ORIENTED_EDGE('',*,*,#353,.F.);
#458=ORIENTED_EDGE('',*,*,#354,.F.);
#459=ORIENTED_EDGE('',*,*,#355,.F.);
#460=ORIENTED_EDGE('',*,*,#337,.F.);
#461=ORIENTED_EDGE('',*,*,#340,.F.);
#462=ORIENTED_EDGE('',*,*,#342,.F.);
#463=ORIENTED_EDGE('',*,*,#356,.T.);
#464=ORIENTED_EDGE('',*,*,#357,.T.);
#465=ORIENTED_EDGE('',*,*,#358,.F.);
#466=ORIENTED_EDGE('',*,*,#350,.T.);
#467=ORIENTED_EDGE('',*,*,#329,.T.);
#468=ORIENTED_EDGE('',*,*,#359,.T.);
#469=ORIENTED_EDGE('',*,*,#349,.T.);
#470=ORIENTED_EDGE('',*,*,#343,.F.);
#471=ORIENTED_EDGE('',*,*,#323,.T.);
#472=ORIENTED_EDGE('',*,*,#338,.F.);
#473=ORIENTED_EDGE('',*,*,#355,.T.);
#474=ORIENTED_EDGE('',*,*,#360,.F.);
#475=ORIENTED_EDGE('',*,*,#324,.T.);
#476=ORIENTED_EDGE('',*,*,#360,.T.);
#477=ORIENTED_EDGE('',*,*,#354,.T.);
#478=ORIENTED_EDGE('',*,*,#361,.F.);
#479=ORIENTED_EDGE('',*,*,#325,.T.);
#480=ORIENTED_EDGE('',*,*,#361,.T.);
#481=ORIENTED_EDGE('',*,*,#353,.T.);
#482=ORIENTED_EDGE('',*,*,#362,.F.);
#483=ORIENTED_EDGE('',*,*,#326,.T.);
#484=ORIENTED_EDGE('',*,*,#362,.T.);
#485=ORIENTED_EDGE('',*,*,#352,.T.);
#486=ORIENTED_EDGE('',*,*,#363,.T.);
#487=ORIENTED_EDGE('',*,*,#364,.F.);
#488=ORIENTED_EDGE('',*,*,#365,.T.);
#489=ORIENTED_EDGE('',*,*,#366,.T.);
#490=ORIENTED_EDGE('',*,*,#347,.F.);
#491=ORIENTED_EDGE('',*,*,#351,.T.);
#492=ORIENTED_EDGE('',*,*,#358,.T.);
#493=ORIENTED_EDGE('',*,*,#367,.T.);
#494=ORIENTED_EDGE('',*,*,#368,.T.);
#495=ORIENTED_EDGE('',*,*,#369,.F.);
#496=ORIENTED_EDGE('',*,*,#370,.T.);
#497=ORIENTED_EDGE('',*,*,#371,.F.);
#498=ORIENTED_EDGE('',*,*,#370,.F.);
#499=ORIENTED_EDGE('',*,*,#372,.F.);
#500=ORIENTED_EDGE('',*,*,#373,.T.);
#501=ORIENTED_EDGE('',*,*,#374,.F.);
#502=ORIENTED_EDGE('',*,*,#373,.F.);
#503=ORIENTED_EDGE('',*,*,#375,.F.);
#504=ORIENTED_EDGE('',*,*,#376,.F.);
#505=ORIENTED_EDGE('',*,*,#365,.F.);
#506=ORIENTED_EDGE('',*,*,#377,.F.);
#507=ORIENTED_EDGE('',*,*,#378,.F.);
#508=ORIENTED_EDGE('',*,*,#379,.F.);
#509=ORIENTED_EDGE('',*,*,#380,.F.);
#510=ORIENTED_EDGE('',*,*,#381,.F.);
#511=ORIENTED_EDGE('',*,*,#369,.T.);
#512=ORIENTED_EDGE('',*,*,#382,.T.);
#513=ORIENTED_EDGE('',*,*,#383,.T.);
#514=ORIENTED_EDGE('',*,*,#375,.T.);
#515=ORIENTED_EDGE('',*,*,#384,.T.);
#516=ORIENTED_EDGE('',*,*,#383,.F.);
#517=ORIENTED_EDGE('',*,*,#385,.T.);
#518=ORIENTED_EDGE('',*,*,#348,.F.);
#519=ORIENTED_EDGE('',*,*,#366,.F.);
#520=ORIENTED_EDGE('',*,*,#376,.T.);
#521=ORIENTED_EDGE('',*,*,#382,.F.);
#522=ORIENTED_EDGE('',*,*,#386,.F.);
#523=ORIENTED_EDGE('',*,*,#330,.F.);
#524=ORIENTED_EDGE('',*,*,#363,.F.);
#525=ORIENTED_EDGE('',*,*,#345,.F.);
#526=ORIENTED_EDGE('',*,*,#385,.F.);
#527=ORIENTED_EDGE('',*,*,#371,.T.);
#528=ORIENTED_EDGE('',*,*,#387,.F.);
#529=ORIENTED_EDGE('',*,*,#388,.F.);
#530=ORIENTED_EDGE('',*,*,#389,.F.);
#531=ORIENTED_EDGE('',*,*,#390,.F.);
#532=ORIENTED_EDGE('',*,*,#391,.T.);
#533=ORIENTED_EDGE('',*,*,#392,.F.);
#534=ORIENTED_EDGE('',*,*,#368,.F.);
#535=ORIENTED_EDGE('',*,*,#393,.F.);
#536=ORIENTED_EDGE('',*,*,#372,.T.);
#537=ORIENTED_EDGE('',*,*,#394,.T.);
#538=ORIENTED_EDGE('',*,*,#395,.T.);
#539=ORIENTED_EDGE('',*,*,#387,.T.);
#540=ORIENTED_EDGE('',*,*,#396,.T.);
#541=ORIENTED_EDGE('',*,*,#394,.F.);
#542=ORIENTED_EDGE('',*,*,#397,.F.);
#543=ORIENTED_EDGE('',*,*,#356,.F.);
#544=ORIENTED_EDGE('',*,*,#359,.F.);
#545=ORIENTED_EDGE('',*,*,#315,.F.);
#546=ORIENTED_EDGE('',*,*,#398,.F.);
#547=ORIENTED_EDGE('',*,*,#374,.T.);
#548=ORIENTED_EDGE('',*,*,#384,.F.);
#549=ORIENTED_EDGE('',*,*,#381,.T.);
#550=ORIENTED_EDGE('',*,*,#399,.F.);
#551=ORIENTED_EDGE('',*,*,#331,.F.);
#552=ORIENTED_EDGE('',*,*,#386,.T.);
#553=ORIENTED_EDGE('',*,*,#400,.F.);
#554=ORIENTED_EDGE('',*,*,#389,.T.);
#555=ORIENTED_EDGE('',*,*,#401,.T.);
#556=ORIENTED_EDGE('',*,*,#317,.F.);
#557=ORIENTED_EDGE('',*,*,#328,.T.);
#558=ORIENTED_EDGE('',*,*,#332,.T.);
#559=ORIENTED_EDGE('',*,*,#399,.T.);
#560=ORIENTED_EDGE('',*,*,#380,.T.);
#561=ORIENTED_EDGE('',*,*,#395,.F.);
#562=ORIENTED_EDGE('',*,*,#398,.T.);
#563=ORIENTED_EDGE('',*,*,#318,.F.);
#564=ORIENTED_EDGE('',*,*,#401,.F.);
#565=ORIENTED_EDGE('',*,*,#388,.T.);
#566=ORIENTED_EDGE('',*,*,#396,.F.);
#567=ORIENTED_EDGE('',*,*,#393,.T.);
#568=ORIENTED_EDGE('',*,*,#367,.F.);
#569=ORIENTED_EDGE('',*,*,#357,.F.);
#570=ORIENTED_EDGE('',*,*,#397,.T.);
#571=ORIENTED_EDGE('',*,*,#400,.T.);
#572=ORIENTED_EDGE('',*,*,#379,.T.);
#573=ORIENTED_EDGE('',*,*,#402,.T.);
#574=ORIENTED_EDGE('',*,*,#390,.T.);
#575=ORIENTED_EDGE('',*,*,#378,.T.);
#576=ORIENTED_EDGE('',*,*,#403,.F.);
#577=ORIENTED_EDGE('',*,*,#391,.F.);
#578=ORIENTED_EDGE('',*,*,#402,.F.);
#579=ORIENTED_EDGE('',*,*,#364,.T.);
#580=ORIENTED_EDGE('',*,*,#392,.T.);
#581=ORIENTED_EDGE('',*,*,#403,.T.);
#582=ORIENTED_EDGE('',*,*,#377,.T.);
#583=ORIENTED_EDGE('',*,*,#335,.T.);
#584=ORIENTED_EDGE('',*,*,#404,.T.);
#585=ORIENTED_EDGE('',*,*,#405,.F.);
#586=ORIENTED_EDGE('',*,*,#406,.T.);
#587=ORIENTED_EDGE('',*,*,#404,.F.);
#588=ORIENTED_EDGE('',*,*,#406,.F.);
#589=ORIENTED_EDGE('',*,*,#333,.T.);
#590=ORIENTED_EDGE('',*,*,#405,.T.);
#591=CYLINDRICAL_SURFACE('',#659,29.1462846137909);
#592=CYLINDRICAL_SURFACE('',#672,29.1462846137909);
#593=CYLINDRICAL_SURFACE('',#674,22.5);
#594=CYLINDRICAL_SURFACE('',#678,98.7281890018507);
#595=CYLINDRICAL_SURFACE('',#680,22.5000000000004);
#596=CYLINDRICAL_SURFACE('',#683,29.1462846137909);
#597=CYLINDRICAL_SURFACE('',#693,29.1462846137909);
#598=CYLINDRICAL_SURFACE('',#695,29.1462846137909);
#599=CYLINDRICAL_SURFACE('',#696,98.7281890018508);
#600=CYLINDRICAL_SURFACE('',#697,22.5000000000004);
#601=CYLINDRICAL_SURFACE('',#699,29.1462846137909);
#602=CYLINDRICAL_SURFACE('',#700,36.);
#603=CYLINDRICAL_SURFACE('',#704,4.5);
#604=CYLINDRICAL_SURFACE('',#707,4.5);
#605=CYLINDRICAL_SURFACE('',#712,9.);
#606=CYLINDRICAL_SURFACE('',#718,9.);
#607=CYLINDRICAL_SURFACE('',#723,36.);
#608=CYLINDRICAL_SURFACE('',#730,27.);
#609=CYLINDRICAL_SURFACE('',#735,16.9);
#610=ADVANCED_FACE('',(#38),#591,.T.);
#611=ADVANCED_FACE('',(#39),#22,.F.);
#612=ADVANCED_FACE('',(#40),#592,.T.);
#613=ADVANCED_FACE('',(#41,#15),#593,.T.);
#614=ADVANCED_FACE('',(#42),#594,.F.);
#615=ADVANCED_FACE('',(#43),#595,.F.);
#616=ADVANCED_FACE('',(#44),#23,.T.);
#617=ADVANCED_FACE('',(#45),#596,.T.);
#618=ADVANCED_FACE('',(#46),#24,.T.);
#619=ADVANCED_FACE('',(#47),#597,.T.);
#620=ADVANCED_FACE('',(#48),#598,.F.);
#621=ADVANCED_FACE('',(#49),#599,.F.);
#622=ADVANCED_FACE('',(#50),#600,.F.);
#623=ADVANCED_FACE('',(#51),#25,.T.);
#624=ADVANCED_FACE('',(#52),#601,.F.);
#625=ADVANCED_FACE('',(#53),#602,.T.);
#626=ADVANCED_FACE('',(#54),#603,.F.);
#627=ADVANCED_FACE('',(#55),#604,.F.);
#628=ADVANCED_FACE('',(#56,#16),#26,.T.);
#629=ADVANCED_FACE('',(#57),#605,.T.);
#630=ADVANCED_FACE('',(#58),#27,.T.);
#631=ADVANCED_FACE('',(#59,#17),#28,.T.);
#632=ADVANCED_FACE('',(#60,#18),#29,.T.);
#633=ADVANCED_FACE('',(#61),#606,.T.);
#634=ADVANCED_FACE('',(#62,#19),#30,.T.);
#635=ADVANCED_FACE('',(#63),#31,.F.);
#636=ADVANCED_FACE('',(#64),#607,.T.);
#637=ADVANCED_FACE('',(#65),#32,.F.);
#638=ADVANCED_FACE('',(#66),#33,.T.);
#639=ADVANCED_FACE('',(#67),#34,.F.);
#640=ADVANCED_FACE('',(#68),#608,.F.);
#641=ADVANCED_FACE('',(#69),#35,.T.);
#642=ADVANCED_FACE('',(#70,#20),#36,.F.);
#643=ADVANCED_FACE('',(#71),#609,.F.);
#644=ADVANCED_FACE('',(#72,#21),#37,.T.);
#645=CLOSED_SHELL('',(#610,#611,#612,#613,#614,#615,#616,#617,#618,#619,
#620,#621,#622,#623,#624,#625,#626,#627,#628,#629,#630,#631,#632,#633,#634,
#635,#636,#637,#638,#639,#640,#641,#642,#643,#644));
#646=DERIVED_UNIT_ELEMENT(#648,1.);
#647=DERIVED_UNIT_ELEMENT(#1139,-3.);
#648=(
MASS_UNIT()
NAMED_UNIT(*)
SI_UNIT(.KILO.,.GRAM.)
);
#649=DERIVED_UNIT((#646,#647));
#650=MEASURE_REPRESENTATION_ITEM('density measure',
POSITIVE_RATIO_MEASURE(7850.),#649);
#651=PROPERTY_DEFINITION_REPRESENTATION(#656,#653);
#652=PROPERTY_DEFINITION_REPRESENTATION(#657,#654);
#653=REPRESENTATION('material name',(#655),#1136);
#654=REPRESENTATION('density',(#650),#1136);
#655=DESCRIPTIVE_REPRESENTATION_ITEM('Steel','Steel');
#656=PROPERTY_DEFINITION('material property','material name',#1146);
#657=PROPERTY_DEFINITION('material property','density of part',#1146);
#658=AXIS2_PLACEMENT_3D('',#946,#738,#739);
#659=AXIS2_PLACEMENT_3D('',#947,#740,#741);
#660=AXIS2_PLACEMENT_3D('',#952,#743,#744);
#661=AXIS2_PLACEMENT_3D('',#955,#746,#747);
#662=AXIS2_PLACEMENT_3D('',#956,#748,#749);
#663=AXIS2_PLACEMENT_3D('',#961,#751,#752);
#664=AXIS2_PLACEMENT_3D('',#963,#753,#754);
#665=AXIS2_PLACEMENT_3D('',#965,#755,#756);
#666=AXIS2_PLACEMENT_3D('',#967,#757,#758);
#667=AXIS2_PLACEMENT_3D('',#969,#759,#760);
#668=AXIS2_PLACEMENT_3D('',#973,#762,#763);
#669=AXIS2_PLACEMENT_3D('',#975,#764,#765);
#670=AXIS2_PLACEMENT_3D('',#976,#766,#767);
#671=AXIS2_PLACEMENT_3D('',#977,#768,#769);
#672=AXIS2_PLACEMENT_3D('',#978,#770,#771);
#673=AXIS2_PLACEMENT_3D('',#982,#773,#774);
#674=AXIS2_PLACEMENT_3D('',#984,#776,#777);
#675=AXIS2_PLACEMENT_3D('',#986,#778,#779);
#676=AXIS2_PLACEMENT_3D('',#989,#781,#782);
#677=AXIS2_PLACEMENT_3D('',#993,#784,#785);
#678=AXIS2_PLACEMENT_3D('',#995,#787,#788);
#679=AXIS2_PLACEMENT_3D('',#998,#790,#791);
#680=AXIS2_PLACEMENT_3D('',#999,#792,#793);
#681=AXIS2_PLACEMENT_3D('',#1002,#795,#796);
#682=AXIS2_PLACEMENT_3D('',#1003,#797,#798);
#683=AXIS2_PLACEMENT_3D('',#1007,#801,#802);
#684=AXIS2_PLACEMENT_3D('',#1012,#804,#805);
#685=AXIS2_PLACEMENT_3D('',#1015,#807,#808);
#686=AXIS2_PLACEMENT_3D('',#1016,#809,#810);
#687=AXIS2_PLACEMENT_3D('',#1018,#811,#812);
#688=AXIS2_PLACEMENT_3D('',#1020,#813,#814);
#689=AXIS2_PLACEMENT_3D('',#1021,#815,#816);
#690=AXIS2_PLACEMENT_3D('',#1023,#817,#818);
#691=AXIS2_PLACEMENT_3D('',#1027,#820,#821);
#692=AXIS2_PLACEMENT_3D('',#1028,#822,#823);
#693=AXIS2_PLACEMENT_3D('',#1029,#824,#825);
#694=AXIS2_PLACEMENT_3D('',#1033,#827,#828);
#695=AXIS2_PLACEMENT_3D('',#1035,#830,#831);
#696=AXIS2_PLACEMENT_3D('',#1037,#833,#834);
#697=AXIS2_PLACEMENT_3D('',#1039,#836,#837);
#698=AXIS2_PLACEMENT_3D('',#1041,#839,#840);
#699=AXIS2_PLACEMENT_3D('',#1043,#842,#843);
#700=AXIS2_PLACEMENT_3D('',#1045,#845,#846);
#701=AXIS2_PLACEMENT_3D('',#1048,#847,#848);
#702=AXIS2_PLACEMENT_3D('',#1051,#850,#851);
#703=AXIS2_PLACEMENT_3D('',#1053,#852,#853);
#704=AXIS2_PLACEMENT_3D('',#1055,#855,#856);
#705=AXIS2_PLACEMENT_3D('',#1057,#857,#858);
#706=AXIS2_PLACEMENT_3D('',#1060,#860,#861);
#707=AXIS2_PLACEMENT_3D('',#1061,#862,#863);
#708=AXIS2_PLACEMENT_3D('',#1063,#864,#865);
#709=AXIS2_PLACEMENT_3D('',#1066,#867,#868);
#710=AXIS2_PLACEMENT_3D('',#1067,#869,#870);
#711=AXIS2_PLACEMENT_3D('',#1070,#871,#872);
#712=AXIS2_PLACEMENT_3D('',#1081,#879,#880);
#713=AXIS2_PLACEMENT_3D('',#1084,#881,#882);
#714=AXIS2_PLACEMENT_3D('',#1087,#885,#886);
#715=AXIS2_PLACEMENT_3D('',#1089,#888,#889);
#716=AXIS2_PLACEMENT_3D('',#1091,#891,#892);
#717=AXIS2_PLACEMENT_3D('',#1094,#893,#894);
#718=AXIS2_PLACEMENT_3D('',#1105,#901,#902);
#719=AXIS2_PLACEMENT_3D('',#1108,#903,#904);
#720=AXIS2_PLACEMENT_3D('',#1111,#907,#908);
#721=AXIS2_PLACEMENT_3D('',#1114,#911,#912);
#722=AXIS2_PLACEMENT_3D('',#1115,#913,#914);
#723=AXIS2_PLACEMENT_3D('',#1116,#915,#916);
#724=AXIS2_PLACEMENT_3D('',#1117,#917,#918);
#725=AXIS2_PLACEMENT_3D('',#1118,#919,#920);
#726=AXIS2_PLACEMENT_3D('',#1119,#921,#922);
#727=AXIS2_PLACEMENT_3D('',#1120,#923,#924);
#728=AXIS2_PLACEMENT_3D('',#1121,#925,#926);
#729=AXIS2_PLACEMENT_3D('',#1122,#927,#928);
#730=AXIS2_PLACEMENT_3D('',#1123,#929,#930);
#731=AXIS2_PLACEMENT_3D('',#1124,#931,#932);
#732=AXIS2_PLACEMENT_3D('',#1125,#933,#934);
#733=AXIS2_PLACEMENT_3D('',#1126,#935,#936);
#734=AXIS2_PLACEMENT_3D('',#1128,#937,#938);
#735=AXIS2_PLACEMENT_3D('',#1129,#939,#940);
#736=AXIS2_PLACEMENT_3D('',#1131,#941,#942);
#737=AXIS2_PLACEMENT_3D('',#1133,#944,#945);
#738=DIRECTION('axis',(0.,0.,1.));
#739=DIRECTION('refdir',(1.,0.,0.));
#740=DIRECTION('center_axis',(0.,0.,-1.));
#741=DIRECTION('ref_axis',(0.789192373001571,0.614146072523589,0.));
#742=DIRECTION('',(0.,0.,1.));
#743=DIRECTION('center_axis',(0.,0.,-1.));
#744=DIRECTION('ref_axis',(0.789192373001571,0.614146072523589,0.));
#745=DIRECTION('',(0.,0.,-1.));
#746=DIRECTION('center_axis',(0.,0.,1.));
#747=DIRECTION('ref_axis',(0.789192373001571,0.614146072523589,0.));
#748=DIRECTION('center_axis',(0.,0.,1.));
#749=DIRECTION('ref_axis',(1.,0.,0.));
#750=DIRECTION('',(0.998629534754587,-0.0523359562426903,0.));
#751=DIRECTION('center_axis',(0.,0.,-1.));
#752=DIRECTION('ref_axis',(0.0523359562430014,0.998629534754571,0.));
#753=DIRECTION('center_axis',(0.,0.,-1.));
#754=DIRECTION('ref_axis',(-0.402458366317065,0.915438290318577,0.));
#755=DIRECTION('center_axis',(0.,0.,-1.));
#756=DIRECTION('ref_axis',(1.,0.,0.));
#757=DIRECTION('center_axis',(0.,0.,-1.));
#758=DIRECTION('ref_axis',(-0.602903768190849,-0.797813917089239,0.));
#759=DIRECTION('center_axis',(0.,0.,-1.));
#760=DIRECTION('ref_axis',(-0.402458366316666,-0.915438290318752,0.));
#761=DIRECTION('',(-0.998629534754587,-0.0523359562426903,0.));
#762=DIRECTION('center_axis',(0.,0.,-1.));
#763=DIRECTION('ref_axis',(0.0523359562429447,-0.998629534754574,0.));
#764=DIRECTION('center_axis',(0.,0.,-1.));
#765=DIRECTION('ref_axis',(0.0523359562429447,-0.998629534754574,0.));
#766=DIRECTION('center_axis',(0.,0.,-1.));
#767=DIRECTION('ref_axis',(0.,1.,0.));
#768=DIRECTION('center_axis',(0.,0.,-1.));
#769=DIRECTION('ref_axis',(0.789192373001571,0.614146072523589,0.));
#770=DIRECTION('center_axis',(0.,0.,-1.));
#771=DIRECTION('ref_axis',(0.0523359562429447,-0.998629534754574,0.));
#772=DIRECTION('',(0.,0.,-1.));
#773=DIRECTION('center_axis',(0.,0.,1.));
#774=DIRECTION('ref_axis',(0.0523359562429447,-0.998629534754574,0.));
#775=DIRECTION('',(0.,0.,-1.));
#776=DIRECTION('center_axis',(0.,0.,1.));
#777=DIRECTION('ref_axis',(1.,0.,0.));
#778=DIRECTION('center_axis',(0.,0.,1.));
#779=DIRECTION('ref_axis',(1.,0.,0.));
#780=DIRECTION('',(0.,0.,-1.));
#781=DIRECTION('center_axis',(0.,0.,-1.));
#782=DIRECTION('ref_axis',(1.,0.,0.));
#783=DIRECTION('',(0.,0.,1.));
#784=DIRECTION('center_axis',(0.,0.,1.));
#785=DIRECTION('ref_axis',(1.,0.,0.));
#786=DIRECTION('',(0.,0.,-1.));
#787=DIRECTION('center_axis',(0.,0.,1.));
#788=DIRECTION('ref_axis',(-0.402458366317065,0.915438290318577,0.));
#789=DIRECTION('',(0.,0.,1.));
#790=DIRECTION('center_axis',(0.,0.,1.));
#791=DIRECTION('ref_axis',(-0.402458366317065,0.915438290318577,0.));
#792=DIRECTION('center_axis',(0.,0.,1.));
#793=DIRECTION('ref_axis',(0.0523359562430014,0.998629534754571,0.));
#794=DIRECTION('',(0.,0.,-1.));
#795=DIRECTION('center_axis',(0.,0.,1.));
#796=DIRECTION('ref_axis',(0.0523359562430014,0.998629534754571,0.));
#797=DIRECTION('center_axis',(-0.0523359562426903,-0.998629534754587,0.));
#798=DIRECTION('ref_axis',(0.998629534754587,-0.0523359562426903,0.));
#799=DIRECTION('',(0.,0.,1.));
#800=DIRECTION('',(-0.998629534754587,0.0523359562426903,0.));
#801=DIRECTION('center_axis',(0.,0.,1.));
#802=DIRECTION('ref_axis',(0.0523359562429447,-0.998629534754574,0.));
#803=DIRECTION('',(0.,0.,-1.));
#804=DIRECTION('center_axis',(0.,0.,1.));
#805=DIRECTION('ref_axis',(0.0523359562429447,-0.998629534754574,0.));
#806=DIRECTION('',(0.,0.,1.));
#807=DIRECTION('center_axis',(0.,0.,-1.));
#808=DIRECTION('ref_axis',(0.0523359562429447,-0.998629534754574,0.));
#809=DIRECTION('center_axis',(0.,0.,1.));
#810=DIRECTION('ref_axis',(1.,0.,0.));
#811=DIRECTION('center_axis',(0.,0.,1.));
#812=DIRECTION('ref_axis',(0.789192373001571,0.614146072523589,0.));
#813=DIRECTION('center_axis',(0.,0.,1.));
#814=DIRECTION('ref_axis',(0.789192373001571,0.614146072523589,0.));
#815=DIRECTION('center_axis',(0.,0.,1.));
#816=DIRECTION('ref_axis',(0.,1.,0.));
#817=DIRECTION('center_axis',(0.,0.,1.));
#818=DIRECTION('ref_axis',(0.0523359562429447,-0.998629534754574,0.));
#819=DIRECTION('',(0.998629534754587,0.0523359562426903,0.));
#820=DIRECTION('center_axis',(0.,0.,1.));
#821=DIRECTION('ref_axis',(-0.402458366316666,-0.915438290318752,0.));
#822=DIRECTION('center_axis',(0.,0.,1.));
#823=DIRECTION('ref_axis',(-0.602903768190849,-0.797813917089239,0.));
#824=DIRECTION('center_axis',(0.,0.,1.));
#825=DIRECTION('ref_axis',(0.789192373001571,0.614146072523589,0.));
#826=DIRECTION('',(0.,0.,1.));
#827=DIRECTION('center_axis',(0.,0.,-1.));
#828=DIRECTION('ref_axis',(0.789192373001571,0.614146072523589,0.));
#829=DIRECTION('',(0.,0.,1.));
#830=DIRECTION('center_axis',(0.,0.,1.));
#831=DIRECTION('ref_axis',(0.789192373001571,0.614146072523589,0.));
#832=DIRECTION('',(0.,0.,1.));
#833=DIRECTION('center_axis',(0.,0.,1.));
#834=DIRECTION('ref_axis',(-0.602903768190849,-0.797813917089239,0.));
#835=DIRECTION('',(0.,0.,1.));
#836=DIRECTION('center_axis',(0.,0.,1.));
#837=DIRECTION('ref_axis',(-0.402458366316666,-0.915438290318752,0.));
#838=DIRECTION('',(0.,0.,1.));
#839=DIRECTION('center_axis',(-0.0523359562426903,0.998629534754587,0.));
#840=DIRECTION('ref_axis',(-0.998629534754587,-0.0523359562426903,0.));
#841=DIRECTION('',(0.,0.,1.));
#842=DIRECTION('center_axis',(0.,0.,1.));
#843=DIRECTION('ref_axis',(0.0523359562429447,-0.998629534754574,0.));
#844=DIRECTION('',(0.,0.,-1.));
#845=DIRECTION('center_axis',(0.,0.,1.));
#846=DIRECTION('ref_axis',(0.,1.,0.));
#847=DIRECTION('center_axis',(0.,0.,1.));
#848=DIRECTION('ref_axis',(0.,1.,0.));
#849=DIRECTION('',(0.,0.,-1.));
#850=DIRECTION('center_axis',(0.,0.,1.));
#851=DIRECTION('ref_axis',(0.,1.,0.));
#852=DIRECTION('center_axis',(0.,0.,1.));
#853=DIRECTION('ref_axis',(0.,1.,0.));
#854=DIRECTION('',(0.,0.,1.));
#855=DIRECTION('center_axis',(-1.,0.,0.));
#856=DIRECTION('ref_axis',(0.,1.,0.));
#857=DIRECTION('center_axis',(-1.,0.,0.));
#858=DIRECTION('ref_axis',(0.,1.,0.));
#859=DIRECTION('',(-1.,0.,0.));
#860=DIRECTION('center_axis',(1.,0.,0.));
#861=DIRECTION('ref_axis',(0.,1.,0.));
#862=DIRECTION('center_axis',(-1.,0.,0.));
#863=DIRECTION('ref_axis',(0.,1.,0.));
#864=DIRECTION('center_axis',(-1.,0.,0.));
#865=DIRECTION('ref_axis',(0.,1.,0.));
#866=DIRECTION('',(-1.,0.,0.));
#867=DIRECTION('center_axis',(1.,0.,0.));
#868=DIRECTION('ref_axis',(0.,1.,0.));
#869=DIRECTION('center_axis',(1.,0.,0.));
#870=DIRECTION('ref_axis',(0.,1.,0.));
#871=DIRECTION('center_axis',(-1.,0.,0.));
#872=DIRECTION('ref_axis',(0.,0.707106781186548,-0.707106781186547));
#873=DIRECTION('',(0.,1.,0.));
#874=DIRECTION('',(0.,1.,0.));
#875=DIRECTION('',(0.,0.,1.));
#876=DIRECTION('',(0.,-1.,0.));
#877=DIRECTION('',(0.,0.,-1.));
#878=DIRECTION('',(0.,-1.,0.));
#879=DIRECTION('center_axis',(-1.,0.,0.));
#880=DIRECTION('ref_axis',(0.,0.707106781186548,0.707106781186547));
#881=DIRECTION('center_axis',(1.,0.,0.));
#882=DIRECTION('ref_axis',(0.,0.707106781186548,0.707106781186547));
#883=DIRECTION('',(1.,0.,0.));
#884=DIRECTION('',(-1.,0.,0.));
#885=DIRECTION('center_axis',(0.,0.,1.));
#886=DIRECTION('ref_axis',(1.,0.,0.));
#887=DIRECTION('',(0.,-1.,0.));
#888=DIRECTION('center_axis',(-1.,0.,0.));
#889=DIRECTION('ref_axis',(0.,-1.,0.));
#890=DIRECTION('',(0.,1.,0.));
#891=DIRECTION('center_axis',(1.,0.,0.));
#892=DIRECTION('ref_axis',(0.,1.,0.));
#893=DIRECTION('center_axis',(-1.,0.,0.));
#894=DIRECTION('ref_axis',(0.,-0.707106781186548,0.707106781186547));
#895=DIRECTION('',(0.,-1.,0.));
#896=DIRECTION('',(0.,0.,1.));
#897=DIRECTION('',(0.,-1.,0.));
#898=DIRECTION('',(0.,0.,1.));
#899=DIRECTION('',(0.,1.,0.));
#900=DIRECTION('',(0.,1.,0.));
#901=DIRECTION('center_axis',(-1.,0.,0.));
#902=DIRECTION('ref_axis',(0.,-0.707106781186548,-0.707106781186547));
#903=DIRECTION('center_axis',(1.,0.,0.));
#904=DIRECTION('ref_axis',(0.,-0.707106781186548,0.707106781186547));
#905=DIRECTION('',(1.,0.,0.));
#906=DIRECTION('',(-1.,0.,0.));
#907=DIRECTION('center_axis',(-1.,0.,0.));
#908=DIRECTION('ref_axis',(0.,-1.,0.));
#909=DIRECTION('',(0.,-1.,0.));
#910=DIRECTION('',(0.,1.,0.));
#911=DIRECTION('center_axis',(0.,0.,1.));
#912=DIRECTION('ref_axis',(1.,0.,0.));
#913=DIRECTION('center_axis',(0.,0.,-1.));
#914=DIRECTION('ref_axis',(0.,1.,0.));
#915=DIRECTION('center_axis',(0.,0.,1.));
#916=DIRECTION('ref_axis',(0.,1.,0.));
#917=DIRECTION('center_axis',(0.,0.,-1.));
#918=DIRECTION('ref_axis',(0.,1.,0.));
#919=DIRECTION('center_axis',(0.,0.,-1.));
#920=DIRECTION('ref_axis',(0.,1.,0.));
#921=DIRECTION('center_axis',(0.,0.,1.));
#922=DIRECTION('ref_axis',(1.,0.,0.));
#923=DIRECTION('center_axis',(0.,0.,1.));
#924=DIRECTION('ref_axis',(1.,0.,0.));
#925=DIRECTION('center_axis',(0.,0.,1.));
#926=DIRECTION('ref_axis',(1.,0.,0.));
#927=DIRECTION('center_axis',(0.,0.,1.));
#928=DIRECTION('ref_axis',(0.,1.,0.));
#929=DIRECTION('center_axis',(0.,0.,1.));
#930=DIRECTION('ref_axis',(0.,1.,0.));
#931=DIRECTION('center_axis',(0.,0.,-1.));
#932=DIRECTION('ref_axis',(0.,1.,0.));
#933=DIRECTION('center_axis',(0.,0.,1.));
#934=DIRECTION('ref_axis',(1.,0.,0.));
#935=DIRECTION('center_axis',(0.,0.,1.));
#936=DIRECTION('ref_axis',(1.,0.,0.));
#937=DIRECTION('center_axis',(0.,0.,1.));
#938=DIRECTION('ref_axis',(1.,0.,0.));
#939=DIRECTION('center_axis',(0.,0.,1.));
#940=DIRECTION('ref_axis',(1.,0.,0.));
#941=DIRECTION('center_axis',(0.,0.,-1.));
#942=DIRECTION('ref_axis',(1.,0.,0.));
#943=DIRECTION('',(0.,0.,-1.));
#944=DIRECTION('center_axis',(0.,0.,1.));
#945=DIRECTION('ref_axis',(1.,0.,0.));
#946=CARTESIAN_POINT('',(0.,0.,0.));
#947=CARTESIAN_POINT('Origin',(149.787049053407,-40.0093348350636,-18.));
#948=CARTESIAN_POINT('',(171.2,-20.2358313886106,-9.));
#949=CARTESIAN_POINT('',(171.2,-20.2358313886106,-8.));
#950=CARTESIAN_POINT('',(171.2,-20.2358313886106,0.));
#951=CARTESIAN_POINT('',(172.789074571943,-22.1092586108492,-8.));
#952=CARTESIAN_POINT('Origin',(149.787049053407,-40.0093348350636,-8.));
#953=CARTESIAN_POINT('',(172.789074571943,-22.1092586108492,-9.));
#954=CARTESIAN_POINT('',(172.789074571943,-22.1092586108492,-18.));
#955=CARTESIAN_POINT('Origin',(149.787049053407,-40.0093348350636,-9.));
#956=CARTESIAN_POINT('Origin',(93.4916025402453,4.44089209850063E-15,-8.));
#957=CARTESIAN_POINT('',(42.5530884956157,-5.20315769769731,-8.));
#958=CARTESIAN_POINT('',(151.312447729598,-10.9029941913692,-8.));
#959=CARTESIAN_POINT('',(67.8166143709316,-6.52716298567583,-8.));
#960=CARTESIAN_POINT('',(32.3202162380229,-7.07496069750326,-8.));
#961=CARTESIAN_POINT('Origin',(41.3755294801481,-27.6723222296756,-8.));
#962=CARTESIAN_POINT('',(14.1941305085471,-17.457853794391,-8.));
#963=CARTESIAN_POINT('Origin',(72.0542018931502,-97.4545252436069,-8.));
#964=CARTESIAN_POINT('',(14.1941305085478,17.4578537943905,-8.));
#965=CARTESIAN_POINT('Origin',(0.,0.,-8.));
#966=CARTESIAN_POINT('',(32.320216238023,7.07496069750326,-8.));
#967=CARTESIAN_POINT('Origin',(72.0542018931502,97.4545252436069,-8.));
#968=CARTESIAN_POINT('',(42.5530884956157,5.2031576976973,-8.));
#969=CARTESIAN_POINT('Origin',(41.3755294801481,27.6723222296756,-8.));
#970=CARTESIAN_POINT('',(151.312447729598,10.9029941913692,-8.));
#971=CARTESIAN_POINT('',(122.196293987923,9.37708123251177,-8.));
#972=CARTESIAN_POINT('',(171.2,20.2358313886106,-8.));
#973=CARTESIAN_POINT('Origin',(149.787049053407,40.0093348350636,-8.));
#974=CARTESIAN_POINT('',(172.789074571943,22.1092586108492,-8.));
#975=CARTESIAN_POINT('Origin',(149.787049053407,40.0093348350636,-8.));
#976=CARTESIAN_POINT('Origin',(201.2,0.,-8.));
#977=CARTESIAN_POINT('Origin',(149.787049053407,-40.0093348350636,-8.));
#978=CARTESIAN_POINT('Origin',(149.787049053407,40.0093348350636,-18.));
#979=CARTESIAN_POINT('',(171.2,20.2358313886106,-9.));
#980=CARTESIAN_POINT('',(171.2,20.2358313886106,0.));
#981=CARTESIAN_POINT('',(172.789074571943,22.1092586108492,-9.));
#982=CARTESIAN_POINT('Origin',(149.787049053407,40.0093348350636,-9.));
#983=CARTESIAN_POINT('',(172.789074571943,22.1092586108492,-18.));
#984=CARTESIAN_POINT('Origin',(0.,0.,0.));
#985=CARTESIAN_POINT('',(-22.5,-2.75545529808154E-15,19.));
#986=CARTESIAN_POINT('Origin',(0.,0.,19.));
#987=CARTESIAN_POINT('',(-22.5,-2.75545529808154E-15,-19.));
#988=CARTESIAN_POINT('',(-22.5,-2.75545529808154E-15,0.));
#989=CARTESIAN_POINT('Origin',(0.,0.,-19.));
#990=CARTESIAN_POINT('',(14.1941305085471,-17.457853794391,3.));
#991=CARTESIAN_POINT('',(14.1941305085473,-17.4578537943908,0.));
#992=CARTESIAN_POINT('',(14.1941305085478,17.4578537943905,3.));
#993=CARTESIAN_POINT('Origin',(0.,0.,3.));
#994=CARTESIAN_POINT('',(14.1941305085473,17.4578537943908,0.));
#995=CARTESIAN_POINT('Origin',(72.0542018931502,-97.4545252436069,0.));
#996=CARTESIAN_POINT('',(32.3202162380229,-7.07496069750326,3.));
#997=CARTESIAN_POINT('',(32.3202162380229,-7.07496069750326,0.));
#998=CARTESIAN_POINT('Origin',(72.0542018931502,-97.4545252436069,3.));
#999=CARTESIAN_POINT('Origin',(41.3755294801481,-27.6723222296756,0.));
#1000=CARTESIAN_POINT('',(42.5530884956157,-5.20315769769731,3.));
#1001=CARTESIAN_POINT('',(42.5530884956156,-5.20315769769731,0.));
#1002=CARTESIAN_POINT('Origin',(41.3755294801481,-27.6723222296756,3.));
#1003=CARTESIAN_POINT('Origin',(42.5530884956156,-5.20315769769731,0.));
#1004=CARTESIAN_POINT('',(151.312447729598,-10.9029941913692,3.));
#1005=CARTESIAN_POINT('',(151.312447729598,-10.9029941913692,0.));
#1006=CARTESIAN_POINT('',(67.8166143709316,-6.52716298567583,3.));
#1007=CARTESIAN_POINT('Origin',(149.787049053407,40.0093348350636,13.));
#1008=CARTESIAN_POINT('',(171.2,20.2358313886106,9.));
#1009=CARTESIAN_POINT('',(171.2,20.2358313886106,3.));
#1010=CARTESIAN_POINT('',(171.2,20.2358313886106,0.));
#1011=CARTESIAN_POINT('',(172.789074571943,22.1092586108492,3.));
#1012=CARTESIAN_POINT('Origin',(149.787049053407,40.0093348350636,3.));
#1013=CARTESIAN_POINT('',(172.789074571943,22.1092586108492,9.));
#1014=CARTESIAN_POINT('',(172.789074571943,22.1092586108492,13.));
#1015=CARTESIAN_POINT('Origin',(149.787049053407,40.0093348350636,9.));
#1016=CARTESIAN_POINT('Origin',(93.4916025402453,4.44089209850063E-15,3.));
#1017=CARTESIAN_POINT('',(171.2,-20.2358313886106,3.));
#1018=CARTESIAN_POINT('Origin',(149.787049053407,-40.0093348350636,3.));
#1019=CARTESIAN_POINT('',(172.789074571943,-22.1092586108492,3.));
#1020=CARTESIAN_POINT('Origin',(149.787049053407,-40.0093348350636,3.));
#1021=CARTESIAN_POINT('Origin',(201.2,0.,3.));
#1022=CARTESIAN_POINT('',(151.312447729598,10.9029941913692,3.));
#1023=CARTESIAN_POINT('Origin',(149.787049053407,40.0093348350636,3.));
#1024=CARTESIAN_POINT('',(42.5530884956157,5.2031576976973,3.));
#1025=CARTESIAN_POINT('',(122.196293987923,9.37708123251177,3.));
#1026=CARTESIAN_POINT('',(32.320216238023,7.07496069750326,3.));
#1027=CARTESIAN_POINT('Origin',(41.3755294801481,27.6723222296756,3.));
#1028=CARTESIAN_POINT('Origin',(72.0542018931502,97.4545252436069,3.));
#1029=CARTESIAN_POINT('Origin',(149.787049053407,-40.0093348350636,13.));
#1030=CARTESIAN_POINT('',(171.2,-20.2358313886106,9.));
#1031=CARTESIAN_POINT('',(171.2,-20.2358313886106,0.));
#1032=CARTESIAN_POINT('',(172.789074571943,-22.1092586108492,9.));
#1033=CARTESIAN_POINT('Origin',(149.787049053407,-40.0093348350636,9.));
#1034=CARTESIAN_POINT('',(172.789074571943,-22.1092586108492,13.));
#1035=CARTESIAN_POINT('Origin',(149.787049053407,-40.0093348350636,0.));
#1036=CARTESIAN_POINT('',(171.2,-20.2358313886106,0.));
#1037=CARTESIAN_POINT('Origin',(72.0542018931502,97.4545252436069,0.));
#1038=CARTESIAN_POINT('',(32.320216238023,7.07496069750325,0.));
#1039=CARTESIAN_POINT('Origin',(41.3755294801481,27.6723222296756,0.));
#1040=CARTESIAN_POINT('',(42.5530884956156,5.2031576976973,0.));
#1041=CARTESIAN_POINT('Origin',(151.312447729598,10.9029941913692,0.));
#1042=CARTESIAN_POINT('',(151.312447729598,10.9029941913692,0.));
#1043=CARTESIAN_POINT('Origin',(149.787049053407,40.0093348350636,0.));
#1044=CARTESIAN_POINT('',(171.2,20.2358313886106,0.));
#1045=CARTESIAN_POINT('Origin',(201.2,0.,0.));
#1046=CARTESIAN_POINT('',(201.2,36.,19.));
#1047=CARTESIAN_POINT('',(201.2,-36.,19.));
#1048=CARTESIAN_POINT('Origin',(201.2,0.,19.));
#1049=CARTESIAN_POINT('',(201.2,36.,9.));
#1050=CARTESIAN_POINT('',(201.2,36.,0.));
#1051=CARTESIAN_POINT('Origin',(201.2,0.,9.));
#1052=CARTESIAN_POINT('',(201.2,-36.,9.));
#1053=CARTESIAN_POINT('Origin',(201.2,0.,9.));
#1054=CARTESIAN_POINT('',(201.2,-36.,0.));
#1055=CARTESIAN_POINT('Origin',(78.165,45.699,0.));
#1056=CARTESIAN_POINT('',(201.2,41.199,5.51091059616309E-16));
#1057=CARTESIAN_POINT('Origin',(201.2,45.699,0.));
#1058=CARTESIAN_POINT('',(171.2,41.199,-5.51091059616309E-16));
#1059=CARTESIAN_POINT('',(78.165,41.199,5.51091059616309E-16));
#1060=CARTESIAN_POINT('Origin',(171.2,45.699,0.));
#1061=CARTESIAN_POINT('Origin',(78.165,-45.699,0.));
#1062=CARTESIAN_POINT('',(201.2,-50.199,5.51091059616309E-16));
#1063=CARTESIAN_POINT('Origin',(201.2,-45.699,0.));
#1064=CARTESIAN_POINT('',(171.2,-50.199,-5.51091059616309E-16));
#1065=CARTESIAN_POINT('',(78.165,-50.199,5.51091059616309E-16));
#1066=CARTESIAN_POINT('Origin',(171.2,-45.699,0.));
#1067=CARTESIAN_POINT('Origin',(201.2,27.,0.));
#1068=CARTESIAN_POINT('',(201.2,45.699,9.));
#1069=CARTESIAN_POINT('',(201.2,45.699,-9.));
#1070=CARTESIAN_POINT('Origin',(201.2,45.699,0.));
#1071=CARTESIAN_POINT('',(201.2,27.,9.));
#1072=CARTESIAN_POINT('',(201.2,27.,19.));
#1073=CARTESIAN_POINT('',(201.2,27.,19.));
#1074=CARTESIAN_POINT('',(201.2,27.,-19.));
#1075=CARTESIAN_POINT('',(201.2,27.,0.));
#1076=CARTESIAN_POINT('',(201.2,36.,-19.));
#1077=CARTESIAN_POINT('',(201.2,27.,-19.));
#1078=CARTESIAN_POINT('',(201.2,36.,-9.));
#1079=CARTESIAN_POINT('',(201.2,36.,0.));
#1080=CARTESIAN_POINT('',(201.2,27.,-9.));
#1081=CARTESIAN_POINT('Origin',(193.7,45.699,0.));
#1082=CARTESIAN_POINT('',(171.2,45.699,-9.));
#1083=CARTESIAN_POINT('',(171.2,45.699,9.));
#1084=CARTESIAN_POINT('Origin',(171.2,45.699,0.));
#1085=CARTESIAN_POINT('',(193.7,45.699,9.));
#1086=CARTESIAN_POINT('',(193.7,45.699,-9.));
#1087=CARTESIAN_POINT('Origin',(186.2,37.4674156943053,9.));
#1088=CARTESIAN_POINT('',(171.2,54.699,9.));
#1089=CARTESIAN_POINT('Origin',(171.2,54.699,0.));
#1090=CARTESIAN_POINT('',(171.2,54.699,-9.));
#1091=CARTESIAN_POINT('Origin',(201.2,-36.,0.));
#1092=CARTESIAN_POINT('',(201.2,-45.699,-9.));
#1093=CARTESIAN_POINT('',(201.2,-45.699,9.));
#1094=CARTESIAN_POINT('Origin',(201.2,-45.699,0.));
#1095=CARTESIAN_POINT('',(201.2,-36.,-9.));
#1096=CARTESIAN_POINT('',(201.2,-27.,-9.));
#1097=CARTESIAN_POINT('',(201.2,-36.,-19.));
#1098=CARTESIAN_POINT('',(201.2,-36.,0.));
#1099=CARTESIAN_POINT('',(201.2,-27.,-19.));
#1100=CARTESIAN_POINT('',(201.2,-27.,-19.));
#1101=CARTESIAN_POINT('',(201.2,-27.,19.));
#1102=CARTESIAN_POINT('',(201.2,-27.,0.));
#1103=CARTESIAN_POINT('',(201.2,-27.,19.));
#1104=CARTESIAN_POINT('',(201.2,-27.,9.));
#1105=CARTESIAN_POINT('Origin',(178.7,-45.699,0.));
#1106=CARTESIAN_POINT('',(171.2,-45.699,9.));
#1107=CARTESIAN_POINT('',(171.2,-45.699,-9.));
#1108=CARTESIAN_POINT('Origin',(171.2,-45.699,0.));
#1109=CARTESIAN_POINT('',(178.7,-45.699,-9.));
#1110=CARTESIAN_POINT('',(178.7,-45.699,9.));
#1111=CARTESIAN_POINT('Origin',(171.2,-20.2358313886106,0.));
#1112=CARTESIAN_POINT('',(171.2,-54.699,9.));
#1113=CARTESIAN_POINT('',(171.2,-54.699,-9.));
#1114=CARTESIAN_POINT('Origin',(186.2,37.4674156943053,-9.));
#1115=CARTESIAN_POINT('Origin',(201.2,0.,-9.));
#1116=CARTESIAN_POINT('Origin',(201.2,0.,0.));
#1117=CARTESIAN_POINT('Origin',(201.2,0.,-19.));
#1118=CARTESIAN_POINT('Origin',(201.2,0.,-9.));
#1119=CARTESIAN_POINT('Origin',(186.2,-37.4674156943053,-9.));
#1120=CARTESIAN_POINT('Origin',(186.2,-37.4674156943053,9.));
#1121=CARTESIAN_POINT('Origin',(183.2,0.,-19.));
#1122=CARTESIAN_POINT('Origin',(201.2,0.,-19.));
#1123=CARTESIAN_POINT('Origin',(201.2,0.,0.));
#1124=CARTESIAN_POINT('Origin',(201.2,0.,19.));
#1125=CARTESIAN_POINT('Origin',(183.2,0.,19.));
#1126=CARTESIAN_POINT('Origin',(0.,0.,-19.));
#1127=CARTESIAN_POINT('',(-16.9,-2.06965309055903E-15,-19.));
#1128=CARTESIAN_POINT('Origin',(0.,0.,-19.));
#1129=CARTESIAN_POINT('Origin',(0.,0.,0.));
#1130=CARTESIAN_POINT('',(-16.9,-2.06965309055903E-15,19.));
#1131=CARTESIAN_POINT('Origin',(0.,0.,19.));
#1132=CARTESIAN_POINT('',(-16.9,-2.06965309055903E-15,0.));
#1133=CARTESIAN_POINT('Origin',(0.,0.,19.));
#1134=UNCERTAINTY_MEASURE_WITH_UNIT(LENGTH_MEASURE(0.01),#1138,
'DISTANCE_ACCURACY_VALUE',
'Maximum model space distance between geometric entities at asserted c
onnectivities');
#1135=UNCERTAINTY_MEASURE_WITH_UNIT(LENGTH_MEASURE(0.01),#1138,
'DISTANCE_ACCURACY_VALUE',
'Maximum model space distance between geometric entities at asserted c
onnectivities');
#1136=(
GEOMETRIC_REPRESENTATION_CONTEXT(3)
GLOBAL_UNCERTAINTY_ASSIGNED_CONTEXT((#1134))
GLOBAL_UNIT_ASSIGNED_CONTEXT((#1138,#1140,#1141))
REPRESENTATION_CONTEXT('','3D')
);
#1137=(
GEOMETRIC_REPRESENTATION_CONTEXT(3)
GLOBAL_UNCERTAINTY_ASSIGNED_CONTEXT((#1135))
GLOBAL_UNIT_ASSIGNED_CONTEXT((#1138,#1140,#1141))
REPRESENTATION_CONTEXT('','3D')
);
#1138=(
LENGTH_UNIT()
NAMED_UNIT(*)
SI_UNIT(.MILLI.,.METRE.)
);
#1139=(
LENGTH_UNIT()
NAMED_UNIT(*)
SI_UNIT($,.METRE.)
);
#1140=(
NAMED_UNIT(*)
PLANE_ANGLE_UNIT()
SI_UNIT($,.RADIAN.)
);
#1141=(
NAMED_UNIT(*)
SI_UNIT($,.STERADIAN.)
SOLID_ANGLE_UNIT()
);
#1142=SHAPE_DEFINITION_REPRESENTATION(#1143,#1144);
#1143=PRODUCT_DEFINITION_SHAPE('',$,#1146);
#1144=SHAPE_REPRESENTATION('',(#658),#1136);
#1145=PRODUCT_DEFINITION_CONTEXT('part definition',#1150,'design');
#1146=PRODUCT_DEFINITION('2026-09-17-18-42-17-002','Connecting Rod',#1147,
#1145);
#1147=PRODUCT_DEFINITION_FORMATION('',$,#1152);
#1148=PRODUCT_RELATED_PRODUCT_CATEGORY('Connecting Rod',
'Connecting Rod',(#1152));
#1149=APPLICATION_PROTOCOL_DEFINITION('international standard',
'automotive_design',2009,#1150);
#1150=APPLICATION_CONTEXT(
'Core Data for Automotive Mechanical Design Process');
#1151=PRODUCT_CONTEXT('part definition',#1150,'mechanical');
#1152=PRODUCT('2026-09-17-18-42-17-002','Connecting Rod',$,(#1151));
#1153=PRESENTATION_STYLE_ASSIGNMENT((#1154));
#1154=SURFACE_STYLE_USAGE(.BOTH.,#1155);
#1155=SURFACE_SIDE_STYLE('',(#1156));
#1156=SURFACE_STYLE_FILL_AREA(#1157);
#1157=FILL_AREA_STYLE('Steel - Satin',(#1158));
#1158=FILL_AREA_STYLE_COLOUR('Steel - Satin',#1159);
#1159=COLOUR_RGB('Steel - Satin',0.627450980392157,0.627450980392157,0.627450980392157);
ENDSEC;
END-ISO-10303-21;
